<svg xmlns="http://www.w3.org/2000/svg" version="1.1" xmlns:xlink="http://www.w3.org/1999/xlink" xmlns:svgjs="http://svgjs.dev/svgjs" width="1500" height="935" viewBox="0 0 1500 935"><g transform="matrix(1,0,0,1,-0.9090909090909918,0.3785425101214628)"><svg viewBox="0 0 396 247" data-background-color="#ffffff" preserveAspectRatio="xMidYMid meet" height="935" width="1500" xmlns="http://www.w3.org/2000/svg" xmlns:xlink="http://www.w3.org/1999/xlink"><g id="tight-bounds" transform="matrix(1,0,0,1,0.2400000000000091,-0.09999999999999432)"><svg viewBox="0 0 395.52 247.2" height="247.2" width="395.52"><rect width="395.52" height="247.2" fill="url(#4baff2e2-aa9d-4b58-8080-1b299742852b)" mask="url(#1b1dac96-08af-4c0b-8574-ca81dc75ad16)" data-fill-palette-color="tertiary"></rect><g><svg></svg></g><g><svg viewBox="0 0 395.52 247.2" height="247.2" width="395.52"><g transform="matrix(1,0,0,1,75.54432,75.88565917808218)"><svg viewBox="0 0 244.43135999999998 95.42868164383563" height="95.42868164383563" width="244.43135999999998"><g><svg viewBox="0 0 244.43135999999998 95.42868164383563" height="95.42868164383563" width="244.43135999999998"><g><svg viewBox="0 0 244.43135999999998 95.42868164383563" height="95.42868164383563" width="244.43135999999998"><g><svg viewBox="0 0 244.43135999999998 95.42868164383563" height="95.42868164383563" width="244.43135999999998"><g id="textblocktransform"><svg viewBox="0 0 244.43135999999998 95.42868164383563" height="95.42868164383563" width="244.43135999999998" id="textblock"><g><svg viewBox="0 0 244.43135999999998 95.42868164383563" height="95.42868164383563" width="244.43135999999998"><g transform="matrix(1,0,0,1,0,0)"><svg width="244.43135999999998" viewBox="0.55 -29.45 87.59 34.2" height="95.42868164383563" data-palette-color="#0119af"><path d="M34.85 1.25L34.85 1.25Q33.3 1.25 32.6-0.13 31.9-1.5 31.9-3.63 31.9-5.75 32.8-9.45L32.8-9.45Q31.05-9.6 26.85-10.15L26.85-10.15Q19.9-1.55 15.3 1.8L15.3 1.8Q11.35 4.75 7.1 4.75L7.1 4.75Q4.4 4.75 2.48 3.4 0.55 2.05 0.55-0.6L0.55-0.6Q0.55-1.1 0.8-1.53 1.05-1.95 1.3-1.75 1.55-1.55 1.55-0.6L1.55-0.6Q1.55 1.1 2.88 1.95 4.2 2.8 6.1 2.8L6.1 2.8Q10.2 2.8 14.18 0.13 18.15-2.55 25-10.35L25-10.35Q17.65-11.25 15.3-11.25L15.3-11.25Q8.95-11.25 7.45-7.1L7.45-7.1Q7.25-6.55 7.25-6.08 7.25-5.6 7.45-5.23 7.65-4.85 7.53-4.63 7.4-4.4 7.1-4.42 6.8-4.45 6.6-4.75L6.6-4.75Q6.05-5.7 6.05-6.6L6.05-6.6Q6.05-9.7 7.18-11.18 8.3-12.65 9.8-13.05L9.8-13.05Q11.6-13.55 14-13.55 16.4-13.55 26.1-11.65L26.1-11.65Q28.8-14.75 34.3-21.63 39.8-28.5 39.8-28.6L39.8-28.6 39.85-28.6Q39.9-28.65 40.1-28.75L40.1-28.75Q41.3-29.45 42.7-29.45L42.7-29.45Q43.2-29.45 43.2-28.95L43.2-28.95Q43.2-28.9 43.15-28.83 43.1-28.75 43.05-28.63 43-28.5 42.95-28.4L42.95-28.4Q38.15-20.45 35.5-10.5L35.5-10.5 35.35-10.15 36.6-10.1Q37-10.05 38.02-10.05 39.05-10.05 40.2-10.53 41.35-11 41.68-11.55 42-12.1 42.25-11.8 42.5-11.5 42.3-11.15L42.3-11.15Q41.75-10.15 40.35-9.7L40.35-9.7Q39.15-9.2 37.98-9.2 36.8-9.2 36.45-9.2L36.45-9.2 35.1-9.25Q34.15-4.9 34.15-2.33 34.15 0.25 35.55 0.25L35.55 0.25Q36.9 0.25 39.75-1.9 42.6-4.05 45.1-7.45L45.1-7.45Q45.25-7.65 45.5-7.55 45.75-7.45 45.75-7.3 45.75-7.15 45.68-6.93 45.6-6.7 44.9-5.8L44.9-5.8Q42.8-3 39.75-0.5L39.75-0.5Q37.55 1.25 34.85 1.25ZM37.6-23.9L37.6-23.9Q37.65-24 37.73-24.18 37.8-24.35 37.85-24.45L37.85-24.45Q31.6-15.9 27.8-11.25L27.8-11.25 33.05-10.4Q34.45-15.85 37.6-23.9ZM47.05-11.15L47.05-11.15Q47.05-13.55 45.65-13.55L45.65-13.55Q45.35-13.55 45.02-13.48 44.7-13.4 44.7-13.6 44.7-13.8 45-14.1L45-14.1Q45.3-14.35 47.05-14.5L47.05-14.5Q49.15-14.5 49.67-13.9 50.2-13.3 50.2-12.7 50.2-12.1 49.27-9.73 48.35-7.35 48.3-7.25L48.3-7.25Q46.8-2.75 46.95-1.6L46.95-1.6Q51.45-7.65 52.85-9.15L52.85-9.15Q55.8-12.4 57.05-13.6L57.05-13.6Q59.95-16.3 62.15-17.25L62.15-17.25Q62.8-17.5 63.3-17.5L63.3-17.5Q64.95-17.5 65.55-16.5L65.55-16.5Q65.75-16.25 65.75-16.03 65.75-15.8 65.6-15.5 65.45-15.2 65.05-15.53 64.65-15.85 63.25-15.85L63.25-15.85Q60.95-15.85 55.55-10.45L55.55-10.45Q52.3-7.1 49.57-3.45 46.85 0.2 46.65 1.75L46.65 1.75Q46.65 2.15 45.9 2.15 45.15 2.15 44.77 1.53 44.4 0.9 44.4 0.48 44.4 0.05 44.45-0.28 44.5-0.6 45.45-3.95 46.4-7.3 46.65-8.4L46.65-8.4Q46.05-7.4 45-5.95L45-5.95Q44.65-5.55 44.42-5.73 44.2-5.9 44.2-6.05 44.2-6.2 44.3-6.4L44.3-6.4Q46.4-9.25 47.05-11.15ZM65-13.85L65-13.85Q66.25-13.85 66.5-13.05L66.5-13.05Q66.6-12.6 66.37-12.18 66.15-11.75 66.05-11.5 65.95-11.25 65.9-11.1L65.9-11.1Q65.65-10.6 65.4-10.15L65.4-10.15Q62.55-4.45 62.4-2.9L62.4-2.9Q62.35-2.45 62.35-1.75 62.35-1.05 62.75-0.6L62.75-0.6Q63.45 0.2 64.75-0.5 66.05-1.2 68.37-3.3 70.7-5.4 72.15-7.4L72.15-7.4Q72.35-7.65 72.6-7.53 72.85-7.4 72.85-7.28 72.85-7.15 72.75-7L72.75-7Q72-5.65 70.05-3.55L70.05-3.55Q66.85-0.1 64.7 0.7L64.7 0.7Q63.45 1.15 62.6 1.15L62.6 1.15Q60.6 1.15 59.95-0.75L59.95-0.75Q59.85-1.1 59.85-1.6L59.85-1.6Q59.85-3.35 61.45-6.9L61.45-6.9Q61.2-6.35 59.5-4.4L59.5-4.4Q59.05-3.9 58.8-4.4L58.8-4.4Q58.75-4.5 58.75-4.67 58.75-4.85 58.95-5.1L58.95-5.1Q61.4-8.15 62.8-10.25L62.8-10.25Q62.7-10.5 62.9-10.9L62.9-10.9Q63.9-13.7 64.65-13.85L64.65-13.85Q64.8-13.85 65-13.85ZM68.95-20.5L68.95-20.5 68.55-18.9Q68.55-18.45 67.9-17.45 67.25-16.45 66.9-16.45L66.9-16.45Q64.75-16.45 64.75-17.5L64.75-17.5Q64.75-17.7 66.9-19.35L66.9-19.35 67.75-20Q68.55-20.7 68.75-20.7 68.95-20.7 68.95-20.5ZM71.99 0.5L71.99 0.5Q71.34 1.25 71.72 1.7 72.09 2.15 72.57 2.15 73.04 2.15 73.54 2L73.54 2Q75.69 1.35 77.72-0.58 79.74-2.5 79.74-4.5L79.74-4.5Q79.74-5.6 77.29-6.9L77.29-6.9Q76.14-7.5 75.99-7.6L75.99-7.6Q74.64-8.5 74.29-9.4L74.29-9.4Q73.59-8.2 72.04-5.95L72.04-5.95Q71.69-5.55 71.39-5.78 71.09-6 71.34-6.4L71.34-6.4Q73.39-9.2 74.04-11.1L74.04-11.1Q74.39-13.85 78.04-16.05 81.69-18.25 84.69-18.25L84.69-18.25Q86.59-18.25 87.37-17.57 88.14-16.9 88.14-16.25 88.14-15.6 87.77-14.75 87.39-13.9 86.24-13.15L86.24-13.15Q85.94-12.95 85.74-13.25L85.74-13.25Q85.64-13.55 86.17-14.08 86.69-14.6 86.84-15.5 86.99-16.4 86.04-16.6L86.04-16.6Q85.89-16.6 85.74-16.6L85.74-16.6Q83.79-16.6 80.87-15.15 77.94-13.7 76.29-11.4L76.29-11.4Q75.64-10.55 75.64-9.68 75.64-8.8 76.84-8.1L76.84-8.1Q77.34-7.8 78.54-7.15 79.74-6.5 80.24-6.2 80.74-5.9 81.44-5.25 82.14-4.6 82.19-4.05L82.19-4.05Q82.44-2.55 80.79-0.75L80.79-0.75Q78.44 1.85 73.79 2.9L73.79 2.9Q72.74 3.15 71.67 3.15 70.59 3.15 70.19 2.35L70.19 2.35Q70.04 2.15 70.04 1.73 70.04 1.3 70.84 0.35L70.84 0.35Q71.59-0.4 73.24-1.1L73.24-1.1Q73.39-1.15 73.49-1.05 73.59-0.95 73.54-0.8 73.49-0.65 73.02-0.45 72.54-0.25 71.99 0.5Z" opacity="1" transform="matrix(1,0,0,1,0,0)" fill="#0119af" class="wordmark-text-0" data-fill-palette-color="primary" id="text-0"></path></svg></g></svg></g></svg></g></svg></g></svg></g></svg></g></svg></g><g><path d="M245.816 0c68.262 0 123.6 55.338 123.6 123.6 0 68.262-55.338 123.6-123.6 123.6-46.905 0-87.707-26.127-108.648-64.621h4.926c20.53 36.027 59.289 60.319 103.722 60.318 65.886 0 119.297-53.411 119.297-119.297 0-65.886-53.411-119.297-119.297-119.297-44.433 0-83.192 24.291-103.722 60.318l-4.926 0c20.941-38.495 61.743-64.621 108.648-64.621z" fill="url(#4baff2e2-aa9d-4b58-8080-1b299742852b)" stroke="transparent" data-fill-palette-color="tertiary"></path></g></svg></g><defs></defs><mask id="1b1dac96-08af-4c0b-8574-ca81dc75ad16"><g id="SvgjsG1220"><svg viewBox="0 0 395.52 247.2" height="247.2" width="395.52"><g><svg></svg></g><g><svg viewBox="0 0 395.52 247.2" height="247.2" width="395.52"><g transform="matrix(1,0,0,1,75.54432,75.88565917808218)"><svg viewBox="0 0 244.43135999999998 95.42868164383563" height="95.42868164383563" width="244.43135999999998"><g><svg viewBox="0 0 244.43135999999998 95.42868164383563" height="95.42868164383563" width="244.43135999999998"><g><svg viewBox="0 0 244.43135999999998 95.42868164383563" height="95.42868164383563" width="244.43135999999998"><g><svg viewBox="0 0 244.43135999999998 95.42868164383563" height="95.42868164383563" width="244.43135999999998"><g id="SvgjsG1219"><svg viewBox="0 0 244.43135999999998 95.42868164383563" height="95.42868164383563" width="244.43135999999998" id="SvgjsSvg1218"><g><svg viewBox="0 0 244.43135999999998 95.42868164383563" height="95.42868164383563" width="244.43135999999998"><g transform="matrix(1,0,0,1,0,0)"><svg width="244.43135999999998" viewBox="0.55 -29.45 87.59 34.2" height="95.42868164383563" data-palette-color="#0119af"><path d="M34.85 1.25L34.85 1.25Q33.3 1.25 32.6-0.13 31.9-1.5 31.9-3.63 31.9-5.75 32.8-9.45L32.8-9.45Q31.05-9.6 26.85-10.15L26.85-10.15Q19.9-1.55 15.3 1.8L15.3 1.8Q11.35 4.75 7.1 4.75L7.1 4.75Q4.4 4.75 2.48 3.4 0.55 2.05 0.55-0.6L0.55-0.6Q0.55-1.1 0.8-1.53 1.05-1.95 1.3-1.75 1.55-1.55 1.55-0.6L1.55-0.6Q1.55 1.1 2.88 1.95 4.2 2.8 6.1 2.8L6.1 2.8Q10.2 2.8 14.18 0.13 18.15-2.55 25-10.35L25-10.35Q17.65-11.25 15.3-11.25L15.3-11.25Q8.95-11.25 7.45-7.1L7.45-7.1Q7.25-6.55 7.25-6.08 7.25-5.6 7.45-5.23 7.65-4.85 7.53-4.63 7.4-4.4 7.1-4.42 6.8-4.45 6.6-4.75L6.6-4.75Q6.05-5.7 6.05-6.6L6.05-6.6Q6.05-9.7 7.18-11.18 8.3-12.65 9.8-13.05L9.8-13.05Q11.6-13.55 14-13.55 16.4-13.55 26.1-11.65L26.1-11.65Q28.8-14.75 34.3-21.63 39.8-28.5 39.8-28.6L39.8-28.6 39.85-28.6Q39.9-28.65 40.1-28.75L40.1-28.75Q41.3-29.45 42.7-29.45L42.7-29.45Q43.2-29.45 43.2-28.95L43.2-28.95Q43.2-28.9 43.15-28.83 43.1-28.75 43.05-28.63 43-28.5 42.95-28.4L42.95-28.4Q38.15-20.45 35.5-10.5L35.5-10.5 35.35-10.15 36.6-10.1Q37-10.05 38.02-10.05 39.05-10.05 40.2-10.53 41.35-11 41.68-11.55 42-12.1 42.25-11.8 42.5-11.5 42.3-11.15L42.3-11.15Q41.75-10.15 40.35-9.7L40.35-9.7Q39.15-9.2 37.98-9.2 36.8-9.2 36.45-9.2L36.45-9.2 35.1-9.25Q34.15-4.9 34.15-2.33 34.15 0.25 35.55 0.25L35.55 0.25Q36.9 0.25 39.75-1.9 42.6-4.05 45.1-7.45L45.1-7.45Q45.25-7.65 45.5-7.55 45.75-7.45 45.75-7.3 45.75-7.15 45.68-6.93 45.6-6.7 44.9-5.8L44.9-5.8Q42.8-3 39.75-0.5L39.75-0.5Q37.55 1.25 34.85 1.25ZM37.6-23.9L37.6-23.9Q37.65-24 37.73-24.18 37.8-24.35 37.85-24.45L37.85-24.45Q31.6-15.9 27.8-11.25L27.8-11.25 33.05-10.4Q34.45-15.85 37.6-23.9ZM47.05-11.15L47.05-11.15Q47.05-13.55 45.65-13.55L45.65-13.55Q45.35-13.55 45.02-13.48 44.7-13.4 44.7-13.6 44.7-13.8 45-14.1L45-14.1Q45.3-14.35 47.05-14.5L47.05-14.5Q49.15-14.5 49.67-13.9 50.2-13.3 50.2-12.7 50.2-12.1 49.27-9.73 48.35-7.35 48.3-7.25L48.3-7.25Q46.8-2.75 46.95-1.6L46.95-1.6Q51.45-7.65 52.85-9.15L52.85-9.15Q55.8-12.4 57.05-13.6L57.05-13.6Q59.95-16.3 62.15-17.25L62.15-17.25Q62.8-17.5 63.3-17.5L63.3-17.5Q64.95-17.5 65.55-16.5L65.55-16.5Q65.75-16.25 65.75-16.03 65.75-15.8 65.6-15.5 65.45-15.2 65.05-15.53 64.65-15.85 63.25-15.85L63.25-15.85Q60.95-15.85 55.55-10.45L55.55-10.45Q52.3-7.1 49.57-3.45 46.85 0.2 46.65 1.75L46.65 1.75Q46.65 2.15 45.9 2.15 45.15 2.15 44.77 1.53 44.4 0.9 44.4 0.48 44.4 0.05 44.45-0.28 44.5-0.6 45.45-3.95 46.4-7.3 46.65-8.4L46.65-8.4Q46.05-7.4 45-5.95L45-5.95Q44.65-5.55 44.42-5.73 44.2-5.9 44.2-6.05 44.2-6.2 44.3-6.4L44.3-6.4Q46.4-9.25 47.05-11.15ZM65-13.85L65-13.85Q66.25-13.85 66.5-13.05L66.5-13.05Q66.6-12.6 66.37-12.18 66.15-11.75 66.05-11.5 65.95-11.25 65.9-11.1L65.9-11.1Q65.65-10.6 65.4-10.15L65.4-10.15Q62.55-4.45 62.4-2.9L62.4-2.9Q62.35-2.45 62.35-1.75 62.35-1.05 62.75-0.6L62.75-0.6Q63.45 0.2 64.75-0.5 66.05-1.2 68.37-3.3 70.7-5.4 72.15-7.4L72.15-7.4Q72.35-7.65 72.6-7.53 72.85-7.4 72.85-7.28 72.85-7.15 72.75-7L72.75-7Q72-5.65 70.05-3.55L70.05-3.55Q66.85-0.1 64.7 0.7L64.7 0.7Q63.45 1.15 62.6 1.15L62.6 1.15Q60.6 1.15 59.95-0.75L59.95-0.75Q59.85-1.1 59.85-1.6L59.85-1.6Q59.85-3.35 61.45-6.9L61.45-6.9Q61.2-6.35 59.5-4.4L59.5-4.4Q59.05-3.9 58.8-4.4L58.8-4.4Q58.75-4.5 58.75-4.67 58.75-4.85 58.95-5.1L58.95-5.1Q61.4-8.15 62.8-10.25L62.8-10.25Q62.7-10.5 62.9-10.9L62.9-10.9Q63.9-13.7 64.65-13.85L64.65-13.85Q64.8-13.85 65-13.85ZM68.95-20.5L68.95-20.5 68.55-18.9Q68.55-18.45 67.9-17.45 67.25-16.45 66.9-16.45L66.9-16.45Q64.75-16.45 64.75-17.5L64.75-17.5Q64.75-17.7 66.9-19.35L66.9-19.35 67.75-20Q68.55-20.7 68.75-20.7 68.95-20.7 68.95-20.5ZM71.99 0.5L71.99 0.5Q71.34 1.25 71.72 1.7 72.09 2.15 72.57 2.15 73.04 2.15 73.54 2L73.54 2Q75.69 1.35 77.72-0.58 79.74-2.5 79.74-4.5L79.74-4.5Q79.74-5.6 77.29-6.9L77.29-6.9Q76.14-7.5 75.99-7.6L75.99-7.6Q74.64-8.5 74.29-9.4L74.29-9.4Q73.59-8.2 72.04-5.95L72.04-5.95Q71.69-5.55 71.39-5.78 71.09-6 71.34-6.4L71.34-6.4Q73.39-9.2 74.04-11.1L74.04-11.1Q74.39-13.85 78.04-16.05 81.69-18.25 84.69-18.25L84.69-18.25Q86.59-18.25 87.37-17.57 88.14-16.9 88.14-16.25 88.14-15.6 87.77-14.75 87.39-13.9 86.24-13.15L86.24-13.15Q85.94-12.95 85.74-13.25L85.74-13.25Q85.64-13.55 86.17-14.08 86.69-14.6 86.84-15.5 86.99-16.4 86.04-16.6L86.04-16.6Q85.89-16.6 85.74-16.6L85.74-16.6Q83.79-16.6 80.87-15.15 77.94-13.7 76.29-11.4L76.29-11.4Q75.64-10.55 75.64-9.68 75.64-8.8 76.84-8.1L76.84-8.1Q77.34-7.8 78.54-7.15 79.74-6.5 80.24-6.2 80.74-5.9 81.44-5.25 82.14-4.6 82.19-4.05L82.19-4.05Q82.44-2.55 80.79-0.75L80.79-0.75Q78.44 1.85 73.79 2.9L73.79 2.9Q72.74 3.15 71.67 3.15 70.59 3.15 70.19 2.35L70.19 2.35Q70.04 2.15 70.04 1.73 70.04 1.3 70.84 0.35L70.84 0.35Q71.59-0.4 73.24-1.1L73.24-1.1Q73.39-1.15 73.49-1.05 73.59-0.95 73.54-0.8 73.49-0.65 73.02-0.45 72.54-0.25 71.99 0.5Z" opacity="1" transform="matrix(1,0,0,1,0,0)" fill="black" class="wordmark-text-0" id="SvgjsPath1217"></path></svg></g></svg></g></svg></g></svg></g></svg></g></svg></g></svg></g><g><path d="M245.816 0c68.262 0 123.6 55.338 123.6 123.6 0 68.262-55.338 123.6-123.6 123.6-46.905 0-87.707-26.127-108.648-64.621h4.926c20.53 36.027 59.289 60.319 103.722 60.318 65.886 0 119.297-53.411 119.297-119.297 0-65.886-53.411-119.297-119.297-119.297-44.433 0-83.192 24.291-103.722 60.318l-4.926 0c20.941-38.495 61.743-64.621 108.648-64.621z" fill="white" stroke="transparent"></path></g></svg></g><defs><mask></mask></defs></svg><rect width="395.52" height="247.2" fill="black" stroke="none" visibility="hidden"></rect></g></mask><linearGradient x1="0.054" x2="0.941" y1="0.5" y2="0.5" id="4baff2e2-aa9d-4b58-8080-1b299742852b"><stop stop-color="#8c8c8c" offset="0"></stop><stop stop-color="#e3e4e5" offset="0.498"></stop><stop stop-color="#8c8c8c" offset="1"></stop></linearGradient></svg><rect width="395.52" height="247.2" fill="none" stroke="none" visibility="hidden"></rect></g></svg></g></svg>